<svg xmlns="http://www.w3.org/2000/svg" width="584.702" height="677.34" viewBox="0 0 584.702 677.34">
  <g id="Layer_x0020_1" transform="translate(-10541.479 -13895.45)">
    <path id="Path_1" data-name="Path 1" d="M10794.3,14440.92l-.09-104.2h111.6c112.26,0,185.27-48.38,188.16-171.91h-135.6c.02.65.02,1.31.02,1.96-.02,47.41-29.92,64.92-72.96,64.92h-91.18q.015-33.435.03-66.88h-135.67q.029,204,.05,407.98Zm108.72-543.05a242.891,242.891,0,0,1,39.44,8.97q.45,118.245.91,236.48-30.089.045-60.19.08.089-101,.19-201.99,10.589-4.846,21.17-9.7-.765-16.92-1.52-33.84Zm62.49,17.63a231.677,231.677,0,0,1,43.85,25.04q.69,101.339,1.39,202.7l-49.46.06v-.3h5.78Q10966.29,14029.255,10965.51,13915.5Zm66.96,44.43c35.3,34.01,57.72,78.86,60.03,128.12.44,9.4.11,23.69,2.32,29.82,3.59,10.02,11.37,14.25,19.72,14.9,3.19.26,4.63.09,6.4,2.54q2.625,3.885,5.24,7.79-46.23.06-92.45.11-.63-91.635-1.26-183.28Zm-174.76,183.5q-31.89.029-63.76.07.195-85.485.39-170.99,12.06-5.925,24.11-11.86-.645-30.63-1.29-61.27a251.294,251.294,0,0,1,39.59-3.93q.48,123.99.96,247.98Zm-85.33.1q-29.6.045-59.2.08.315-67.709.65-135.42,11.355-5.43,22.73-10.87-.825-33.42-1.64-66.85a231.96,231.96,0,0,1,36.57-18.18q.435,115.635.89,231.24Zm-80.01.11-150.88.18c-.41,0,10.09-12.4,12.43-14.64a17.613,17.613,0,0,1,5.66-3.96c2.38-.89,4.98-.85,9.85-1.53a131.888,131.888,0,0,0,26.82-6.39c30.08-11.42,41.46-34.71,45.77-56.69a190.933,190.933,0,0,1,49.13-94.72q.615,88.875,1.22,177.75Z" fill="#fff" fill-rule="evenodd"/>
  </g>
</svg>
